<svg xmlns="http://www.w3.org/2000/svg">
    <symbol id="i-merge" viewBox="0 0 32 32">
        <circle cx="10" cy="6" r="3" />
        <circle cx="22" cy="6" r="3" />
        <circle cx="16" cy="26" r="3" />
        <path d="M10 9V13L16 17V23V17L22 13V9" />
    </symbol>

    <symbol id="i-stackoverflow" viewBox="0 0 64 64">
        <path stroke-width="0" fill="currentColor" d="M7.1,39.2V59.5H53.2V39.2H48.3V54.5H12.2V39.2ZM43,49.2V44.2H17.5V49.2ZM43,42.7L43.9,37.8L19,32.7L18,37.5ZM44.4,36.3L46.5,31.8L23.5,21L21.4,25.5ZM47.5,30.4L50.5,26.7L30.9,10.4L27.9,14.1ZM51.7,25.4L55.6,22.6L40.4,2.1L36.6,5Z"/>
    </symbol>
</svg>